<svg width="367" height="217" viewBox="0 0 367 217" fill="none" xmlns="http://www.w3.org/2000/svg">
<path d="M0 121.031V66.784H22.4172C26.0374 66.784 29.1934 67.4621 31.8853 68.8182C34.5773 70.1242 36.6658 71.9826 38.151 74.3936C39.6362 76.8045 40.3788 79.6173 40.3788 82.8319C40.3788 85.9963 39.6362 88.784 38.151 91.195C36.6658 93.5557 34.5773 95.4141 31.8853 96.7703C29.1934 98.0762 26.0374 98.7292 22.4172 98.7292H8.49347V90.2155H22.1387C24.6914 90.2155 26.6407 89.5876 27.9867 88.3319C29.3791 87.026 30.0752 85.2178 30.0752 82.9073C30.0752 80.5466 29.4023 78.7634 28.0563 77.558C26.7103 76.3023 24.7378 75.6744 22.1387 75.6744H10.7213V121.031H0ZM28.2652 121.031L8.14538 92.8525H19.4932L42.7458 121.031H28.2652Z" fill="white"/>
<path d="M44.9715 121.031L62.9331 66.784H72.1227L55.6231 121.031H44.9715ZM81.7301 121.031L65.3001 66.784H74.9075L92.8691 121.031H81.7301ZM54.4396 100.01H82.5655V109.051H54.4396V100.01Z" fill="white"/>
<path d="M98.0437 121.031V66.784H111.898L134.176 114.702L130.764 115.606V66.784H141.207V121.031H127.353L105.075 73.1128L108.486 72.2087V121.031H98.0437Z" fill="white"/>
<path d="M146.34 121.031L164.302 66.784H173.491L156.992 121.031H146.34ZM183.099 121.031L166.669 66.784H176.276L194.238 121.031H183.099ZM155.808 100.01H183.934V109.051H155.808V100.01Z" fill="white"/>
<path d="M217.101 121.784C209.953 121.784 204.593 119.674 201.019 115.455C197.492 111.186 195.728 104.983 195.728 96.8456V66.784H206.449V98.8799C206.449 103.601 207.401 107.067 209.303 109.277C211.206 111.487 213.829 112.592 217.17 112.592C220.512 112.592 223.134 111.487 225.037 109.277C226.94 107.067 227.892 103.626 227.892 98.9552V66.784H238.613V96.9963C238.613 105.033 236.826 111.186 233.252 115.455C229.679 119.674 224.295 121.784 217.101 121.784Z" fill="white"/>
<path d="M245.031 121.031V66.784H255.753V121.031H245.031ZM250.044 100.01V91.1196H278.796V100.01H250.044ZM250.044 75.6744V66.784H280.398V75.6744H250.044Z" fill="white"/>
<path d="M279.118 121.031L297.08 66.784H306.27L289.77 121.031H279.118ZM315.877 121.031L299.447 66.784H309.054L327.016 121.031H315.877ZM288.587 100.01H316.713V109.051H288.587V100.01Z" fill="white"/>
<path d="M332.191 121.031V66.784H342.912V121.031H332.191ZM337.203 121.031V112.14H367V121.031H337.203Z" fill="white"/>
<path d="M79 216.031V161.784H95.6965L109.61 214.072H103.558L117.471 161.784H134.238V216.031H123.663V165.024H125.472L111.906 216.031H100.845L87.4178 165.476H89.157V216.031H79Z" fill="white"/>
<path d="M161.964 216.784C154.822 216.784 149.465 214.674 145.894 210.455C142.369 206.186 140.607 199.983 140.607 191.846V161.784H151.32V193.88C151.32 198.601 152.271 202.067 154.173 204.277C156.074 206.487 158.695 207.592 162.034 207.592C165.373 207.592 167.994 206.487 169.895 204.277C171.797 202.067 172.748 198.626 172.748 193.955V161.784H183.461V191.996C183.461 200.033 181.676 206.186 178.104 210.455C174.533 214.674 169.153 216.784 161.964 216.784Z" fill="white"/>
<path d="M189.875 216.031V161.784H200.589V216.031H189.875ZM222.294 216.031V161.784H233.008V216.031H222.294ZM194.884 183.332H227.164V192.222H194.884V183.332Z" fill="white"/>
<path d="M238.137 216.031L256.085 161.784H265.269L248.781 216.031H238.137ZM274.869 216.031L258.451 161.784H268.051L286 216.031H274.869ZM247.598 195.01H275.704V204.051H247.598V195.01Z" fill="white"/>
<path d="M160 26.784V0.864H162.952V26.784H160Z" fill="white"/>
<path d="M168.601 8.388V6.912C169.417 6.816 169.993 6.504 170.329 5.976C170.665 5.448 170.833 4.608 170.833 3.456L171.913 3.6H168.637V0H172.489V2.808C172.489 4.344 172.177 5.604 171.553 6.588C170.953 7.572 169.969 8.172 168.601 8.388Z" fill="white"/>
<path d="M178.1 26.784V8.424H180.8V12.744H180.98V26.784H178.1ZM190.484 26.784V14.616C190.484 13.224 190.172 12.204 189.548 11.556C188.924 10.908 188.024 10.584 186.848 10.584C185.744 10.584 184.748 10.848 183.86 11.376C182.972 11.904 182.264 12.636 181.736 13.572C181.232 14.508 180.98 15.6 180.98 16.848L180.512 12.492C181.136 11.124 182.072 10.044 183.32 9.252C184.568 8.46 185.924 8.064 187.388 8.064C189.164 8.064 190.604 8.592 191.708 9.648C192.812 10.68 193.364 12.084 193.364 13.86V26.784H190.484ZM202.868 26.784V14.616C202.868 13.224 202.556 12.204 201.932 11.556C201.308 10.908 200.408 10.584 199.232 10.584C198.128 10.584 197.132 10.848 196.244 11.376C195.356 11.904 194.648 12.636 194.12 13.572C193.616 14.508 193.364 15.6 193.364 16.848L192.644 12.492C193.268 11.124 194.228 10.044 195.524 9.252C196.82 8.46 198.212 8.064 199.7 8.064C201.476 8.064 202.928 8.592 204.056 9.648C205.184 10.68 205.748 12.084 205.748 13.86V26.784H202.868Z" fill="white"/>
</svg>
